PathFileType	4	(X/Y/Z)	Patient5_TMGait_0pt45_1_right_06.trc.trc
DataRate	CameraRate	NumFrames	NumMarkers	Units	OrigDataRate	OrigDataStartFrame	OrigNumFrames
63.636363636364	63.636363636364	4	32	mm	63.636363636364	1	       141
Frame#	Time	R.ASIS			L.ASIS			Chest			R.Shoulder			Neck			L.Shoulder			L.Elbow			L.Wrist			R.Elbow			R.Wrist			L.Thigh.Superior			L.Thigh.Lateral			L.Thigh.Inferior			L.Patella			L.Shank.Superior			L.Shank.Lateral			L.Shank.Inferior			L.Heel			L.Midfoot.Lateral			L.Midfoot.Superior			L.Toe			R.Thigh.Superior			R.Thigh.Lateral			R.Thigh.Inferior			R.Patella			R.Shank.Superior			R.Shank.Lateral			R.Shank.Inferior			R.Heel			R.Midfoot.Lateral			R.Midfoot.Superior			R.Toe			
		X1	Y1	Z1	X2	Y2	Z2	X3	Y3	Z3	X4	Y4	Z4	X5	Y5	Z5	X6	Y6	Z6	X7	Y7	Z7	X8	Y8	Z8	X9	Y9	Z9	X10	Y10	Z10	X11	Y11	Z11	X12	Y12	Z12	X13	Y13	Z13	X14	Y14	Z14	X15	Y15	Z15	X16	Y16	Z16	X17	Y17	Z17	X18	Y18	Z18	X19	Y19	Z19	X20	Y20	Z20	X21	Y21	Z21	X22	Y22	Z22	X23	Y23	Z23	X24	Y24	Z24	X25	Y25	Z25	X26	Y26	Z26	X27	Y27	Z27	X28	Y28	Z28	X29	Y29	Z29	X30	Y30	Z30	X31	Y31	Z31	X32	Y32	Z32	

1	9.620000000000	947.987846423112	1024.617424448842	540.385152252228	967.870155788987	963.908381748232	288.786146253644	1030.415016429889	1444.776261981558	414.931744162367	897.323578375360	1515.440841266615	551.705623270009	922.153821997064	1572.619651421986	368.074246777767	1025.282932344663	1512.490366045873	213.137867677754	1013.939646661429	1191.992626081982	72.420569588515	1165.796329905488	948.512499645615	85.717445634930	774.556137581590	1196.641434052564	664.209877044930	991.007797999630	1004.027485343177	643.015347918670	970.987290938907	741.669726740159	295.503235460769	892.288839550423	675.902278827984	257.031746284564	956.774050585580	613.786123041617	322.591909593256	945.681332407776	498.868139771054	332.385455539705	893.116177480522	401.221372513310	357.943293581981	821.087422576840	333.048598037093	283.962888881654	854.576946471856	280.655532166516	373.525501408665	709.392145571874	51.179189228409	388.664560269281	796.043544467779	27.842909346327	325.349672574232	895.055440754003	87.863230301292	366.547072703194	1001.948216847310	44.869015869109	368.802424857645	1005.649671398438	822.285911498284	590.878037224647	943.312308748595	736.233248163715	651.040479089263	1046.683820003956	701.520430393578	599.315028648554	1073.821021589109	608.288771161898	650.613973096943	1042.644879140747	494.873199729706	617.001211534683	955.386721378234	429.705010654749	686.220209431733	1026.487075682961	355.170558837417	623.393176026005	917.739660887206	128.875843839352	586.308430877131	981.321291607190	94.706339382529	671.644611157154	1087.156371501019	162.012044432198	677.404869009157	1189.647443250856	118.980329604398	694.221671280649	
2	9.635714285714	947.297494253879	1024.619347940999	540.359957196294	965.387589664655	963.753281902125	288.445598236486	1027.922330652983	1444.559955875824	414.573371426875	895.071445172483	1515.473528106222	551.805654637262	919.397850342595	1572.254115301865	368.008168652062	1022.138030599825	1511.799617246715	212.776033771425	1011.624463441420	1190.542084829662	73.759213485406	1163.791903660934	947.287110768821	88.502866471239	771.188995118248	1197.234996167294	664.701372413023	988.237961956576	1005.256666527379	644.643944373852	967.619384553260	741.045751244178	295.786969925602	887.982039688463	675.804672186188	257.614284213142	952.145956560256	613.206412875198	322.838878793772	939.974387761884	498.481669857164	332.350253414511	887.101416110788	401.109127921061	358.095431440925	814.359950943405	333.405909517905	284.388904508272	847.971901093669	280.694038839850	373.570933382006	702.003337135349	51.574777100950	388.620764945840	788.543430707220	27.910898244316	325.547920625486	887.641660654798	88.118320118694	366.333308117042	994.402698959528	44.588299392974	368.916747748674	1009.288770820934	823.812004224538	587.631102649536	950.113775271848	737.340529522217	650.396388522068	1052.434308953337	703.709735050400	596.026884377278	1082.060431375170	611.106846160834	647.075865114136	1050.264848247936	496.790330628385	614.610894608192	965.771828979392	431.566233458232	686.529013085565	1035.018787541122	357.178122852188	621.515336322364	925.552392821899	130.508828542915	588.463597323318	992.412994172966	96.544115498300	671.137257352037	1097.801259318984	164.599441825769	673.044182985830	1200.866492501460	122.267786053627	686.013707022931	
3	9.651428571429	946.622071960446	1024.500365485065	540.222298376454	962.960139794883	963.608465424302	288.127626059495	1025.484508794019	1444.347209998256	414.214364331575	892.915627622652	1515.477033823727	551.962814011862	916.670348153715	1571.891137788954	368.005958352693	1018.966851128817	1511.149045189032	212.417915909082	1009.216200443156	1189.135401088760	75.085980635900	1161.706464660482	946.116736805312	91.266761494307	767.950748709402	1197.812409260486	665.284206077497	985.525672720281	1006.389829306213	646.322909837772	964.330603362311	740.427036016234	296.028125910455	883.768903502600	675.698232881510	258.193196682491	947.652683980848	612.635609448763	323.038800522581	934.412646714697	498.085330898033	332.290881021251	881.212457202691	400.992615723731	358.235106055881	807.748681083194	333.768592482634	284.808336825244	841.506101443731	280.730517574162	373.625551307748	694.706300362730	51.945399107386	388.598103709572	781.141864826983	27.979967745077	325.740308783000	880.327737663686	88.352816945575	366.130563240910	986.959253622291	44.339190665501	369.010388241979	1012.767165316945	825.189816649775	584.523521258334	956.737607503383	738.348860977415	649.748983515367	1057.948563408536	705.713927118928	592.751518883977	1089.996745272126	613.717928485030	643.514253088004	1057.591792194297	498.551884424730	612.205173347700	975.794770377330	433.282696286951	686.750406483688	1043.183128207269	359.019277140498	619.620711078746	933.026775975218	132.004049609155	590.508723619395	1003.033071634892	98.241664649467	670.588205615929	1107.979489097654	166.991749954192	668.761656661084	1211.566159164724	125.301267634679	678.008975405510	
4	9.667142857143	945.995424066657	1024.155754675854	539.893631036114	960.632857936937	963.477926514740	287.861079143291	1023.145274675359	1444.140498699769	413.867884208435	890.952454653297	1515.421058436134	552.249597508773	913.987002204629	1571.528558741436	368.141642148875	1015.714539250292	1510.568154204790	212.080547083483	1006.576563397637	1187.807954386684	76.395670289839	1159.417296401908	945.047306786870	93.980058436978	764.991173968717	1198.350656110633	666.081587767186	982.948875312157	1007.326151174092	648.107180312734	961.182427434260	739.822729092525	296.201119576583	879.721262301031	675.577412966962	258.762307043248	943.387845335967	612.077031445537	323.156636037911	929.089478722085	497.668892696828	332.191114137602	875.528349844778	400.866400413492	358.350470368113	801.317519573240	334.146932946899	285.215321593008	835.257019480649	280.767292674027	373.693374724070	687.531509660482	52.287291513785	388.608751451765	773.873771824399	28.055007660923	325.922967307587	873.147786416079	88.549414413664	365.948231586806	979.652318678573	44.143844411245	369.068151630567	1015.939848560825	826.269422371348	581.691791242497	962.982384964963	739.124044787948	649.090759019595	1062.997129660284	707.336264726263	589.520497472534	1097.321157772153	615.897411386377	639.928157097408	1064.340441270663	499.982359844285	609.763501405821	985.103028821813	434.672753003391	686.778370873149	1050.654146754542	360.509895483688	617.671802962925	939.895557535197	133.186621900597	592.276918192876	1012.786649653976	99.632619214861	669.914587545891	1117.295817895003	168.990175095780	664.601625662813	1221.315633938379	127.849719124793	670.385994505302	
